<mxfile host="app.diagrams.net" modified="2023-05-30T07:13:13.236Z" agent="Mozilla/5.0 (Windows NT 10.0; Win64; x64) AppleWebKit/537.36 (KHTML, like Gecko) Chrome/113.0.0.0 Safari/537.36" version="21.3.5" etag="tTBC9-sAnsR6YnhYqm4E" type="github">
  <diagram name="Pagina-1" id="PtYTALxs_4IgmIWhhKTx">
    <mxGraphModel>
      <root>
        <mxCell id="0" />
        <mxCell id="1" parent="0" />
      </root>
    </mxGraphModel>
  </diagram>
</mxfile>
